<svg width="53" height="38" viewBox="0 0 53 38" fill="none" xmlns="http://www.w3.org/2000/svg">
<path d="M38.0625 15.3125C38.0625 19.6602 34.5352 23.1875 30.1875 23.1875C25.7578 23.1875 22.3125 19.6602 22.3125 15.3125C22.3125 10.9648 25.7578 7.4375 30.1875 7.4375C34.5352 7.4375 38.0625 10.9648 38.0625 15.3125ZM30.1875 8.75C26.4961 8.75 23.625 11.7031 23.625 15.3125C23.625 19.0039 26.4961 21.875 30.1875 21.875C33.7969 21.875 36.75 19.0039 36.75 15.3125C36.75 11.7031 33.7969 8.75 30.1875 8.75ZM47.25 0.875C50.1211 0.875 52.5 3.25391 52.5 6.125V24.5C52.5 27.4531 50.1211 29.75 47.25 29.75H13.125C10.1719 29.75 7.875 27.4531 7.875 24.5V6.125C7.875 3.25391 10.1719 0.875 13.125 0.875H47.25ZM47.25 2.1875H13.125C10.9102 2.1875 9.1875 3.99219 9.1875 6.125V24.5C9.1875 26.7148 10.9102 28.4375 13.125 28.4375H47.25C49.3828 28.4375 51.1875 26.7148 51.1875 24.5V6.125C51.1875 3.99219 49.3828 2.1875 47.25 2.1875ZM5.25 10.0625C3.03516 10.0625 1.3125 11.8672 1.3125 14V32.375C1.3125 34.5898 3.03516 36.3125 5.25 36.3125H39.375C41.5078 36.3125 43.3125 34.5898 43.3125 32.375H44.625C44.625 35.3281 42.2461 37.625 39.375 37.625H5.25C2.29688 37.625 0 35.3281 0 32.375V14C0 11.1289 2.29688 8.75 5.25 8.75V10.0625Z" fill="url(#paint0_linear_53_12385)"/>
<defs>
<linearGradient id="paint0_linear_53_12385" x1="-27.4266" y1="-4.00003" x2="86.709" y2="-4.74977" gradientUnits="userSpaceOnUse">
<stop stop-color="#0062E8"/>
<stop offset="1" stop-color="#A4C2FF"/>
</linearGradient>
</defs>
</svg>
