<svg width="21" height="36" viewBox="0 0 21 36" fill="none" xmlns="http://www.w3.org/2000/svg">
<path d="M8.97465 34.6955C8.77818 35.0409 8.41388 35.25 8.01647 35.25V35.25C7.3442 35.25 6.82779 34.6546 6.92286 33.9891L8.6594 21.8333H1.95106C0.839397 21.8333 0.858564 21.22 1.22273 20.5683C1.5869 19.9167 1.31856 20.415 1.3569 20.3383C3.77604 16.0626 7.38783 9.73192 12.1743 1.31028C12.3707 0.964795 12.7382 0.75 13.1356 0.75V0.75C13.8079 0.75 14.3243 1.34545 14.2293 2.01099L12.4927 14.1667H19.2011C20.1402 14.1667 20.2744 14.7992 20.1019 15.1442L19.9677 15.4317C13.6787 26.4294 10.0218 32.8544 8.97465 34.6955Z" stroke="url(#paint0_linear_345_7840)"/>
<defs>
<linearGradient id="paint0_linear_345_7840" x1="0.997904" y1="17.9962" x2="20.1599" y2="17.9962" gradientUnits="userSpaceOnUse">
<stop stop-color="#1656EB"/>
<stop offset="1" stop-color="#A4C2FF"/>
</linearGradient>
</defs>
</svg>
