<svg width="136" height="15" viewBox="0 0 136 15" fill="none" xmlns="http://www.w3.org/2000/svg">
<path d="M10.313 0.216363V1.72939H6.24417V14.631H4.38356V1.72939H0.31475V0.216363H10.313ZM19.8095 14.631L16.0474 8.74246H14.0232V14.631H12.1626V0.216363H16.9061C18.5418 0.216363 19.7686 0.611658 20.5864 1.40225C21.4043 2.1792 21.8132 3.21515 21.8132 4.51008C21.8132 5.68233 21.4861 6.62968 20.8318 7.35211C20.1775 8.06091 19.2302 8.50392 17.9897 8.68112L21.9154 14.631H19.8095ZM14.0232 7.393H16.7425C18.8553 7.393 19.9117 6.46611 19.9117 4.61231C19.9117 2.75852 18.8553 1.83162 16.7425 1.83162H14.0232V7.393ZM32.5272 11.2982H26.1889L24.9825 14.631H22.9788L28.3153 0.482165H30.4212L35.7373 14.631H33.7335L32.5272 11.2982ZM31.9956 9.84655L29.358 2.56768L26.7205 9.84655H31.9956ZM48.8251 14.631H46.9645L39.4812 3.24241V14.631H37.6206V0.216363H39.4812L46.9645 11.6254V0.216363H48.8251V14.631ZM60.9362 10.8893C60.9362 11.5709 60.7726 12.2047 60.4455 12.7908C60.1183 13.3769 59.6208 13.854 58.9529 14.2221C58.285 14.5901 57.4603 14.7741 56.4789 14.7741C55.5247 14.7741 54.6728 14.6037 53.9231 14.2629C53.187 13.9085 52.5941 13.4315 52.1443 12.8317C51.7081 12.2183 51.4559 11.5231 51.3878 10.7462H53.3711C53.4119 11.1551 53.5483 11.5572 53.78 11.9525C54.0253 12.3342 54.3661 12.6545 54.8023 12.9135C55.2521 13.1589 55.7905 13.2815 56.4175 13.2815C57.2354 13.2815 57.8624 13.0634 58.2986 12.6272C58.7348 12.1911 58.9529 11.6322 58.9529 10.9507C58.9529 10.3645 58.7961 9.88745 58.4826 9.51941C58.1827 9.15138 57.8079 8.86513 57.3581 8.66067C56.9083 8.44258 56.2949 8.21085 55.5179 7.9655C54.6046 7.66562 53.8686 7.38619 53.3097 7.1272C52.7645 6.85458 52.2942 6.45247 51.8989 5.92087C51.5173 5.38927 51.3264 4.68728 51.3264 3.81491C51.3264 3.06521 51.5036 2.40411 51.858 1.83162C52.2261 1.25912 52.744 0.81612 53.4119 0.502611C54.0935 0.189101 54.8909 0.0323465 55.8042 0.0323465C57.2218 0.0323465 58.3463 0.379933 59.1778 1.07511C60.0093 1.75665 60.4932 2.62902 60.6295 3.69223H58.6257C58.5167 3.11973 58.2236 2.61539 57.7466 2.1792C57.2695 1.74302 56.622 1.52492 55.8042 1.52492C55.0545 1.52492 54.4547 1.72257 54.0049 2.11787C53.5551 2.49953 53.3302 3.04476 53.3302 3.75357C53.3302 4.31243 53.4733 4.76907 53.7595 5.12347C54.0594 5.46424 54.4274 5.73686 54.8636 5.94132C55.2998 6.13215 55.8996 6.35024 56.6629 6.5956C57.5898 6.89548 58.3327 7.18172 58.8915 7.45434C59.464 7.72696 59.9479 8.1427 60.3432 8.70156C60.7385 9.2468 60.9362 9.97605 60.9362 10.8893ZM71.8823 11.2982H65.5439L64.3376 14.631H62.3339L67.6703 0.482165H69.7763L75.0923 14.631H73.0886L71.8823 11.2982ZM71.3507 9.84655L68.7131 2.56768L66.0755 9.84655H71.3507ZM83.3549 0.0732397C85.1132 0.0732397 86.5649 0.509427 87.7099 1.3818C88.8549 2.24054 89.6455 3.41961 90.0817 4.919H88.1188C87.7508 3.96485 87.1579 3.20833 86.34 2.64947C85.5222 2.07697 84.5203 1.79073 83.3344 1.79073C82.3939 1.79073 81.5488 2.02245 80.7991 2.4859C80.063 2.93572 79.4769 3.59 79.0407 4.44874C78.6181 5.29385 78.4069 6.2889 78.4069 7.4339C78.4069 8.56526 78.6181 9.55349 79.0407 10.3986C79.4769 11.2437 80.063 11.898 80.7991 12.3614C81.5488 12.8113 82.3939 13.0362 83.3344 13.0362C84.5203 13.0362 85.5222 12.7567 86.34 12.1979C87.1579 11.6254 87.7508 10.8621 88.1188 9.90789H90.0817C89.6455 11.4073 88.8549 12.5932 87.7099 13.4655C86.5649 14.3243 85.1132 14.7537 83.3549 14.7537C82.0054 14.7537 80.8127 14.447 79.7768 13.8336C78.7408 13.2066 77.9298 12.341 77.3437 11.2369C76.7712 10.1192 76.4849 8.8515 76.4849 7.4339C76.4849 6.00266 76.7712 4.72817 77.3437 3.61044C77.9298 2.49271 78.7408 1.62716 79.7768 1.01377C80.8127 0.386749 82.0054 0.0732397 83.3549 0.0732397ZM101.403 0.216363V1.72939H97.3339V14.631H95.4733V1.72939H91.4045V0.216363H101.403ZM105.113 0.216363V14.631H103.252V0.216363H105.113ZM114.708 0.0323465C116.044 0.0323465 117.244 0.345856 118.307 0.972875C119.384 1.59989 120.229 2.47908 120.842 3.61044C121.456 4.72817 121.762 5.99584 121.762 7.41345C121.762 8.83106 121.456 10.1055 120.842 11.2369C120.229 12.3546 119.384 13.227 118.307 13.854C117.244 14.481 116.044 14.7946 114.708 14.7946C113.373 14.7946 112.159 14.481 111.069 13.854C109.992 13.227 109.147 12.3546 108.534 11.2369C107.92 10.1055 107.614 8.83106 107.614 7.41345C107.614 5.99584 107.92 4.72817 108.534 3.61044C109.147 2.47908 109.992 1.59989 111.069 0.972875C112.159 0.345856 113.373 0.0323465 114.708 0.0323465ZM114.708 1.77028C113.713 1.77028 112.821 2.002 112.03 2.46545C111.253 2.91527 110.64 3.56955 110.19 4.42829C109.754 5.27341 109.536 6.26846 109.536 7.41345C109.536 8.54481 109.754 9.53986 110.19 10.3986C110.64 11.2573 111.253 11.9184 112.03 12.3819C112.821 12.8317 113.713 13.0566 114.708 13.0566C115.69 13.0566 116.569 12.8249 117.346 12.3614C118.137 11.898 118.75 11.2437 119.186 10.3986C119.636 9.53986 119.861 8.54481 119.861 7.41345C119.861 6.26846 119.636 5.27341 119.186 4.42829C118.75 3.56955 118.137 2.91527 117.346 2.46545C116.569 2.002 115.69 1.77028 114.708 1.77028ZM135.482 14.631H133.622L126.138 3.24241V14.631H124.278V0.216363H126.138L133.622 11.6254V0.216363H135.482V14.631Z" fill="url(#paint0_radial_310_682)"/>
<defs>
<radialGradient id="paint0_radial_310_682" cx="0" cy="0" r="1" gradientUnits="userSpaceOnUse" gradientTransform="translate(98.1925 3.36122) rotate(108.907) scale(18.4939 84.179)">
<stop offset="0.00887753" stop-color="#DEF9FA"/>
<stop offset="0.1723" stop-color="#BEF3F5"/>
<stop offset="0.4204" stop-color="#9DEDF0"/>
<stop offset="0.5512" stop-color="#7DE7EB"/>
<stop offset="0.7154" stop-color="#5CE1E6"/>
<stop offset="1" stop-color="#33BBCF"/>
</radialGradient>
</defs>
</svg>
