<svg width="219" height="15" viewBox="0 0 219 15" fill="none" xmlns="http://www.w3.org/2000/svg">
<path d="M10.4525 0.216363V1.72939H6.38366V14.631H4.52305V1.72939H0.454246V0.216363H10.4525ZM19.949 14.631L16.1868 8.74246H14.1627V14.631H12.3021V0.216363H17.0456C18.6813 0.216363 19.9081 0.611658 20.7259 1.40225C21.5438 2.1792 21.9527 3.21515 21.9527 4.51008C21.9527 5.68233 21.6256 6.62968 20.9713 7.35211C20.317 8.06091 19.3697 8.50392 18.1292 8.68112L22.0549 14.631H19.949ZM14.1627 7.393H16.882C18.9948 7.393 20.0512 6.46611 20.0512 4.61231C20.0512 2.75852 18.9948 1.83162 16.882 1.83162H14.1627V7.393ZM25.9808 0.216363V8.86513C25.9808 10.2827 26.2943 11.3323 26.9213 12.0139C27.5483 12.6818 28.4139 13.0157 29.518 13.0157C30.6084 13.0157 31.4604 12.675 32.0738 11.9934C32.6871 11.3119 32.9938 10.2691 32.9938 8.86513V0.216363H34.8544V8.86513C34.8544 10.828 34.3637 12.3069 33.3823 13.302C32.4145 14.2834 31.1128 14.7741 29.4771 14.7741C27.855 14.7741 26.5533 14.2834 25.5718 13.302C24.6041 12.3069 24.1202 10.828 24.1202 8.86513V0.216363H25.9808ZM46.8591 10.8893C46.8591 11.5709 46.6956 12.2047 46.3684 12.7908C46.0413 13.3769 45.5437 13.854 44.8758 14.2221C44.2079 14.5901 43.3833 14.7741 42.4018 14.7741C41.4477 14.7741 40.5958 14.6037 39.8461 14.2629C39.11 13.9085 38.517 13.4315 38.0672 12.8317C37.631 12.2183 37.3789 11.5231 37.3107 10.7462H39.294C39.3349 11.1551 39.4712 11.5572 39.7029 11.9525C39.9483 12.3342 40.2891 12.6545 40.7252 12.9135C41.1751 13.1589 41.7135 13.2815 42.3405 13.2815C43.1584 13.2815 43.7854 13.0634 44.2216 12.6272C44.6577 12.1911 44.8758 11.6322 44.8758 10.9507C44.8758 10.3645 44.7191 9.88745 44.4056 9.51941C44.1057 9.15138 43.7308 8.86513 43.281 8.66067C42.8312 8.44258 42.2178 8.21085 41.4409 7.9655C40.5276 7.66562 39.7915 7.38619 39.2327 7.1272C38.6874 6.85458 38.2172 6.45247 37.8219 5.92087C37.4402 5.38927 37.2494 4.68728 37.2494 3.81491C37.2494 3.06521 37.4266 2.40411 37.781 1.83162C38.149 1.25912 38.667 0.81612 39.3349 0.502611C40.0164 0.189101 40.8138 0.0323465 41.7271 0.0323465C43.1447 0.0323465 44.2693 0.379933 45.1007 1.07511C45.9322 1.75665 46.4161 2.62902 46.5524 3.69223H44.5487C44.4397 3.11973 44.1466 2.61539 43.6695 2.1792C43.1924 1.74302 42.545 1.52492 41.7271 1.52492C40.9774 1.52492 40.3777 1.72257 39.9278 2.11787C39.478 2.49953 39.2531 3.04476 39.2531 3.75357C39.2531 4.31243 39.3962 4.76907 39.6825 5.12347C39.9824 5.46424 40.3504 5.73686 40.7866 5.94132C41.2228 6.13215 41.8225 6.35024 42.5859 6.5956C43.5128 6.89548 44.2556 7.18172 44.8145 7.45434C45.387 7.72696 45.8709 8.1427 46.2662 8.70156C46.6615 9.2468 46.8591 9.97605 46.8591 10.8893ZM58.1937 0.216363V1.72939H54.1249V14.631H52.2643V1.72939H48.1955V0.216363H58.1937ZM61.9039 1.72939V6.65694H67.3835V8.08818H61.9039V13.118H67.9969V14.631H60.0433V0.216363H67.9969V1.72939H61.9039ZM82.5313 7.41345C82.5313 8.87195 82.2382 10.1464 81.6521 11.2369C81.066 12.3137 80.2004 13.152 79.0554 13.7518C77.9241 14.3379 76.561 14.631 74.9662 14.631H70.3862V0.216363H74.9662C76.561 0.216363 77.9241 0.509426 79.0554 1.09555C80.2004 1.66805 81.066 2.49953 81.6521 3.59C82.2382 4.66683 82.5313 5.94132 82.5313 7.41345ZM74.8231 12.9544C76.7041 12.9544 78.1422 12.4705 79.1372 11.5027C80.1323 10.5349 80.6298 9.17183 80.6298 7.41345C80.6298 5.65507 80.1323 4.29199 79.1372 3.3242C78.1558 2.34278 76.7178 1.85207 74.8231 1.85207H72.2468V12.9544H74.8231ZM97.1272 7.16809C98.0132 7.35893 98.7289 7.78148 99.2741 8.43576C99.833 9.09004 100.112 9.86019 100.112 10.7462C100.112 11.9184 99.7103 12.859 98.9061 13.5678C98.1155 14.2766 96.9637 14.631 95.4506 14.631H90.0937V0.216363H95.3688C96.8137 0.216363 97.911 0.536688 98.6607 1.17734C99.4104 1.81799 99.7852 2.69718 99.7852 3.81491C99.7852 4.7418 99.5331 5.4915 99.0287 6.064C98.538 6.63649 97.9042 7.00452 97.1272 7.16809ZM91.9543 6.53426H95.0622C95.9754 6.53426 96.6706 6.32298 97.1477 5.90043C97.6384 5.47787 97.8837 4.88493 97.8837 4.1216C97.8837 3.38553 97.6452 2.80622 97.1681 2.38367C96.691 1.96111 95.9618 1.74983 94.9804 1.74983H91.9543V6.53426ZM95.103 13.0771C96.0845 13.0771 96.841 12.8522 97.3726 12.4023C97.9178 11.9525 98.1904 11.3187 98.1904 10.5008C98.1904 9.69662 97.911 9.0696 97.3521 8.61978C96.8069 8.15633 96.0436 7.92461 95.0622 7.92461H91.9543V13.0771H95.103ZM112.677 0.216363L107.954 9.17183V14.631H106.073V9.17183L101.329 0.216363H103.497L107.034 7.18854L110.551 0.216363H112.677ZM125.984 0.0732397C127.743 0.0732397 129.194 0.509427 130.339 1.3818C131.484 2.24054 132.275 3.41961 132.711 4.919H130.748C130.38 3.96485 129.787 3.20833 128.969 2.64947C128.152 2.07697 127.15 1.79073 125.964 1.79073C125.023 1.79073 124.178 2.02245 123.428 2.4859C122.692 2.93572 122.106 3.59 121.67 4.44874C121.248 5.29385 121.036 6.2889 121.036 7.4339C121.036 8.56526 121.248 9.55349 121.67 10.3986C122.106 11.2437 122.692 11.898 123.428 12.3614C124.178 12.8113 125.023 13.0362 125.964 13.0362C127.15 13.0362 128.152 12.7567 128.969 12.1979C129.787 11.6254 130.38 10.8621 130.748 9.90789H132.711C132.275 11.4073 131.484 12.5932 130.339 13.4655C129.194 14.3243 127.743 14.7537 125.984 14.7537C124.635 14.7537 123.442 14.447 122.406 13.8336C121.37 13.2066 120.559 12.341 119.973 11.2369C119.401 10.1192 119.114 8.8515 119.114 7.4339C119.114 6.00266 119.401 4.72817 119.973 3.61044C120.559 2.49271 121.37 1.62716 122.406 1.01377C123.442 0.386749 124.635 0.0732397 125.984 0.0732397ZM141.803 0.0323465C143.139 0.0323465 144.339 0.345856 145.402 0.972875C146.479 1.59989 147.324 2.47908 147.937 3.61044C148.551 4.72817 148.857 5.99584 148.857 7.41345C148.857 8.83106 148.551 10.1055 147.937 11.2369C147.324 12.3546 146.479 13.227 145.402 13.854C144.339 14.481 143.139 14.7946 141.803 14.7946C140.468 14.7946 139.254 14.481 138.164 13.854C137.087 13.227 136.242 12.3546 135.629 11.2369C135.015 10.1055 134.709 8.83106 134.709 7.41345C134.709 5.99584 135.015 4.72817 135.629 3.61044C136.242 2.47908 137.087 1.59989 138.164 0.972875C139.254 0.345856 140.468 0.0323465 141.803 0.0323465ZM141.803 1.77028C140.808 1.77028 139.916 2.002 139.125 2.46545C138.348 2.91527 137.735 3.56955 137.285 4.42829C136.849 5.27341 136.631 6.26846 136.631 7.41345C136.631 8.54481 136.849 9.53986 137.285 10.3986C137.735 11.2573 138.348 11.9184 139.125 12.3819C139.916 12.8317 140.808 13.0566 141.803 13.0566C142.785 13.0566 143.664 12.8249 144.441 12.3614C145.232 11.898 145.845 11.2437 146.281 10.3986C146.731 9.53986 146.956 8.54481 146.956 7.41345C146.956 6.26846 146.731 5.27341 146.281 4.42829C145.845 3.56955 145.232 2.91527 144.441 2.46545C143.664 2.002 142.785 1.77028 141.803 1.77028ZM165.808 0.461719V14.631H163.947V3.3242L159.428 14.631H157.772L153.233 3.36509V14.631H151.373V0.461719H153.601L158.631 12.3614L163.579 0.461719H165.808ZM170.644 8.82424V14.631H168.784V0.216363H173.364C175.013 0.216363 176.247 0.604842 177.065 1.3818C177.882 2.14513 178.291 3.1947 178.291 4.53053C178.291 5.87998 177.869 6.93637 177.024 7.6997C176.179 8.44939 174.959 8.82424 173.364 8.82424H170.644ZM173.2 7.27033C174.332 7.27033 175.143 7.03179 175.633 6.55471C176.138 6.07763 176.39 5.4029 176.39 4.53053C176.39 3.63089 176.138 2.94935 175.633 2.4859C175.143 2.00882 174.332 1.77028 173.2 1.77028H170.644V7.27033H173.2ZM188.909 11.2982H182.571L181.364 14.631H179.361L184.697 0.482165H186.803L192.119 14.631H190.115L188.909 11.2982ZM188.377 9.84655L185.74 2.56768L183.102 9.84655H188.377ZM205.207 14.631H203.346L195.863 3.24241V14.631H194.002V0.216363H195.863L203.346 11.6254V0.216363H205.207V14.631ZM218.442 0.216363L213.719 9.17183V14.631H211.838V9.17183L207.095 0.216363H209.262L212.799 7.18854L216.316 0.216363H218.442Z" fill="url(#paint0_radial_310_681)"/>
<defs>
<radialGradient id="paint0_radial_310_681" cx="0" cy="0" r="1" gradientUnits="userSpaceOnUse" gradientTransform="translate(156.528 3.36122) rotate(118.611) scale(19.9298 124.404)">
<stop offset="0.00887753" stop-color="#DEF9FA"/>
<stop offset="0.1723" stop-color="#BEF3F5"/>
<stop offset="0.4204" stop-color="#9DEDF0"/>
<stop offset="0.5512" stop-color="#7DE7EB"/>
<stop offset="0.7154" stop-color="#5CE1E6"/>
<stop offset="1" stop-color="#33BBCF"/>
</radialGradient>
</defs>
</svg>
