<svg width="120" height="15" viewBox="0 0 120 15" fill="none" xmlns="http://www.w3.org/2000/svg">
<path d="M2.08769 0.216363V8.86513C2.08769 10.2827 2.4012 11.3323 3.02822 12.0139C3.65523 12.6818 4.52079 13.0157 5.62489 13.0157C6.71536 13.0157 7.56729 12.675 8.18067 11.9934C8.79406 11.3119 9.10076 10.2691 9.10076 8.86513V0.216363H10.9614V8.86513C10.9614 10.828 10.4707 12.3069 9.48924 13.302C8.52145 14.2834 7.2197 14.7741 5.584 14.7741C3.96193 14.7741 2.66018 14.2834 1.67876 13.302C0.710972 12.3069 0.227077 10.828 0.227077 8.86513V0.216363H2.08769ZM22.966 10.8893C22.966 11.5709 22.8025 12.2047 22.4753 12.7908C22.1482 13.3769 21.6507 13.854 20.9828 14.2221C20.3148 14.5901 19.4902 14.7741 18.5088 14.7741C17.5546 14.7741 16.7027 14.6037 15.953 14.2629C15.2169 13.9085 14.624 13.4315 14.1741 12.8317C13.738 12.2183 13.4858 11.5231 13.4176 10.7462H15.4009C15.4418 11.1551 15.5781 11.5572 15.8098 11.9525C16.0552 12.3342 16.396 12.6545 16.8322 12.9135C17.282 13.1589 17.8204 13.2815 18.4474 13.2815C19.2653 13.2815 19.8923 13.0634 20.3285 12.6272C20.7647 12.1911 20.9828 11.6322 20.9828 10.9507C20.9828 10.3645 20.826 9.88745 20.5125 9.51941C20.2126 9.15138 19.8378 8.86513 19.3879 8.66067C18.9381 8.44258 18.3247 8.21085 17.5478 7.9655C16.6345 7.66562 15.8984 7.38619 15.3396 7.1272C14.7943 6.85458 14.3241 6.45247 13.9288 5.92087C13.5471 5.38927 13.3563 4.68728 13.3563 3.81491C13.3563 3.06521 13.5335 2.40411 13.8879 1.83162C14.2559 1.25912 14.7739 0.81612 15.4418 0.502611C16.1234 0.189101 16.9208 0.0323465 17.834 0.0323465C19.2516 0.0323465 20.3762 0.379933 21.2077 1.07511C22.0391 1.75665 22.523 2.62902 22.6593 3.69223H20.6556C20.5466 3.11973 20.2535 2.61539 19.7764 2.1792C19.2993 1.74302 18.6519 1.52492 17.834 1.52492C17.0843 1.52492 16.4846 1.72257 16.0348 2.11787C15.5849 2.49953 15.36 3.04476 15.36 3.75357C15.36 4.31243 15.5032 4.76907 15.7894 5.12347C16.0893 5.46424 16.4573 5.73686 16.8935 5.94132C17.3297 6.13215 17.9294 6.35024 18.6928 6.5956C19.6197 6.89548 20.3625 7.18172 20.9214 7.45434C21.4939 7.72696 21.9778 8.1427 22.3731 8.70156C22.7684 9.2468 22.966 9.97605 22.966 10.8893ZM27.3284 1.72939V6.65694H32.808V8.08818H27.3284V13.118H33.4214V14.631H25.4678V0.216363H33.4214V1.72939H27.3284ZM43.4577 14.631L39.6956 8.74246H37.6714V14.631H35.8108V0.216363H40.5543C42.19 0.216363 43.4168 0.611658 44.2346 1.40225C45.0525 2.1792 45.4614 3.21515 45.4614 4.51008C45.4614 5.68233 45.1343 6.62968 44.48 7.35211C43.8257 8.06091 42.8784 8.50392 41.638 8.68112L45.5636 14.631H43.4577ZM37.6714 7.393H40.3907C42.5035 7.393 43.5599 6.46611 43.5599 4.61231C43.5599 2.75852 42.5035 1.83162 40.3907 1.83162H37.6714V7.393ZM61.2271 11.2982H54.8887L53.6824 14.631H51.6787L57.0151 0.482165H59.1211L64.4371 14.631H62.4334L61.2271 11.2982ZM60.6955 9.84655L58.0579 2.56768L55.4203 9.84655H60.6955ZM72.6997 0.0732397C74.458 0.0732397 75.9097 0.509427 77.0547 1.3818C78.1997 2.24054 78.9903 3.41961 79.4265 4.919H77.4636C77.0956 3.96485 76.5027 3.20833 75.6848 2.64947C74.867 2.07697 73.8651 1.79073 72.6792 1.79073C71.7387 1.79073 70.8936 2.02245 70.1439 2.4859C69.4078 2.93572 68.8217 3.59 68.3855 4.44874C67.9629 5.29385 67.7517 6.2889 67.7517 7.4339C67.7517 8.56526 67.9629 9.55349 68.3855 10.3986C68.8217 11.2437 69.4078 11.898 70.1439 12.3614C70.8936 12.8113 71.7387 13.0362 72.6792 13.0362C73.8651 13.0362 74.867 12.7567 75.6848 12.1979C76.5027 11.6254 77.0956 10.8621 77.4636 9.90789H79.4265C78.9903 11.4073 78.1997 12.5932 77.0547 13.4655C75.9097 14.3243 74.458 14.7537 72.6997 14.7537C71.3502 14.7537 70.1575 14.447 69.1216 13.8336C68.0856 13.2066 67.2746 12.341 66.6885 11.2369C66.116 10.1192 65.8297 8.8515 65.8297 7.4339C65.8297 6.00266 66.116 4.72817 66.6885 3.61044C67.2746 2.49271 68.0856 1.62716 69.1216 1.01377C70.1575 0.386749 71.3502 0.0732397 72.6997 0.0732397ZM90.7475 0.216363V1.72939H86.6787V14.631H84.8181V1.72939H80.7493V0.216363H90.7475ZM94.4577 0.216363V14.631H92.5971V0.216363H94.4577ZM98.3896 0.216363L102.786 12.5659L107.243 0.216363H109.267L103.971 14.631H101.62L96.345 0.216363H98.3896ZM113.007 1.72939V6.65694H118.487V8.08818H113.007V13.118H119.1V14.631H111.146V0.216363H119.1V1.72939H113.007Z" fill="url(#paint0_radial_310_680)"/>
<defs>
<radialGradient id="paint0_radial_310_680" cx="0" cy="0" r="1" gradientUnits="userSpaceOnUse" gradientTransform="translate(86.13 3.36122) rotate(106.933) scale(18.289 75.6641)">
<stop offset="0.00887753" stop-color="#DEF9FA"/>
<stop offset="0.1723" stop-color="#BEF3F5"/>
<stop offset="0.4204" stop-color="#9DEDF0"/>
<stop offset="0.5512" stop-color="#7DE7EB"/>
<stop offset="0.7154" stop-color="#5CE1E6"/>
<stop offset="1" stop-color="#33BBCF"/>
</radialGradient>
</defs>
</svg>
