<svg width="42" height="38" viewBox="0 0 42 38" fill="none" xmlns="http://www.w3.org/2000/svg">
<path d="M38.7188 0.875C39.0469 0.875 39.375 1.20312 39.375 1.53125C39.375 1.94141 39.0469 2.1875 38.7188 2.1875H5.90625C3.36328 2.1875 1.3125 4.32031 1.3125 6.78125V31.7188C1.3125 34.2617 3.36328 36.3125 5.90625 36.3125H36.0938C38.5547 36.3125 40.6875 34.2617 40.6875 31.7188V13.3438C40.6875 10.8828 38.5547 8.75 36.0938 8.75H5.90625C5.49609 8.75 5.25 8.50391 5.25 8.09375C5.25 7.76562 5.49609 7.4375 5.90625 7.4375H36.0938C39.293 7.4375 42 10.1445 42 13.3438V31.7188C42 35 39.293 37.625 36.0938 37.625H5.90625C2.625 37.625 0 35 0 31.7188V6.78125C0 3.58203 2.625 0.875 5.90625 0.875H38.7188ZM36.0938 22.5312C36.0938 24.418 34.6172 25.8125 32.8125 25.8125C30.9258 25.8125 29.5312 24.418 29.5312 22.5312C29.5312 20.7266 30.9258 19.25 32.8125 19.25C34.6172 19.25 36.0938 20.7266 36.0938 22.5312ZM32.8125 20.5625C31.6641 20.5625 30.8438 21.4648 30.8438 22.5312C30.8438 23.6797 31.6641 24.5 32.8125 24.5C33.8789 24.5 34.7812 23.6797 34.7812 22.5312C34.7812 21.4648 33.8789 20.5625 32.8125 20.5625Z" fill="url(#paint0_linear_53_12386)"/>
<defs>
<linearGradient id="paint0_linear_53_12386" x1="-21.7343" y1="-4.00003" x2="68.7142" y2="-4.47086" gradientUnits="userSpaceOnUse">
<stop stop-color="#0062E8"/>
<stop offset="1" stop-color="#A4C2FF"/>
</linearGradient>
</defs>
</svg>
